<svg id="info-circle" xmlns="http://www.w3.org/2000/svg" width="10.156" height="10.156" viewBox="0 0 10.156 10.156">
  <path id="패스_1898" data-name="패스 1898" d="M5.078,9.521A4.443,4.443,0,1,0,.635,5.078,4.443,4.443,0,0,0,5.078,9.521Zm0,.635A5.078,5.078,0,1,0,0,5.078,5.078,5.078,0,0,0,5.078,10.156Z" fill="#67ac5b" fill-rule="evenodd"/>
  <path id="패스_1899" data-name="패스 1899" d="M16.169,14.823l-1.453.182-.052.241.285.053c.186.045.223.112.183.3l-.468,2.2c-.123.569.067.837.513.837a1.315,1.315,0,0,0,.93-.379l.056-.264a.7.7,0,0,1-.436.156c-.175,0-.238-.122-.193-.338Z" transform="translate(-10.501 -10.641)" fill="#67ac5b"/>
  <path id="패스_1900" data-name="패스 1900" d="M17.019,8.51a.635.635,0,1,1-.635-.635A.635.635,0,0,1,17.019,8.51Z" transform="translate(-11.307 -5.653)" fill="#67ac5b"/>
</svg>
