<?xml version="1.0" encoding="utf-8"?>
<!-- Generator: Adobe Illustrator 25.3.1, SVG Export Plug-In . SVG Version: 6.00 Build 0)  -->
<svg version="1.1" id="레이어_1" xmlns="http://www.w3.org/2000/svg" xmlns:xlink="http://www.w3.org/1999/xlink" x="0px"
	 y="0px" viewBox="0 0 1913.4 975" style="enable-background:new 0 0 1913.4 975;" xml:space="preserve">
<style type="text/css">
	.st0{fill:#FFFFFF;}
</style>
<g>
	<g>
		<path class="st0" d="M123.8,907.9v-0.3c0-33.5,25.6-61.8,61.6-61.8c17.9,0,29.9,4.3,40.8,12.1c2,1.5,4.3,4.4,4.3,8.5
			c0,5.6-4.6,10.4-10.4,10.4c-2.7,0-4.8-1.2-6.5-2.4c-7.7-5.6-16-9.4-29-9.4c-22,0-38.8,19.3-38.8,42.2v0.3
			c0,24.6,16.2,42.7,40.6,42.7c11.3,0,21.5-3.6,28.9-9v-22.4h-23.6c-5.1,0-9.4-3.9-9.4-9c0-5.1,4.3-9.2,9.4-9.2h33.3
			c6,0,10.6,4.6,10.6,10.6v31.9c0,6-2.4,10.2-7.3,13.3c-10.2,6.8-24.6,13-42.5,13C148.4,969.4,123.8,942.8,123.8,907.9z"/>
		<path class="st0" d="M260.6,886.6c0-5.8,4.4-10.4,10.2-10.4s10.4,4.6,10.4,10.4v9.2C286,884.6,294.9,876,304,876
			c6.5,0,10.2,4.3,10.2,10.2c0,5.5-3.6,9-8.2,9.9c-14.7,2.6-24.8,13.8-24.8,35.2V958c0,5.6-4.6,10.2-10.4,10.2
			c-5.6,0-10.2-4.4-10.2-10.2V886.6z"/>
		<path class="st0" d="M372.4,969.4c-26.1,0-46.3-19-46.3-46.8v-0.3c0-25.8,18.3-47,44.1-47c28.7,0,42.9,23.6,42.9,44.4
			c0,5.8-4.4,9.9-9.7,9.9h-56.5c2.2,14.7,12.6,22.9,26,22.9c8.7,0,15.5-3.1,21.3-7.9c1.5-1.2,2.9-1.9,5.3-1.9c4.6,0,8.2,3.6,8.2,8.4
			c0,2.6-1.2,4.8-2.7,6.3C396.7,964.8,386.4,969.4,372.4,969.4z M392.9,916c-1.4-13.3-9.2-23.7-22.9-23.7
			c-12.6,0-21.5,9.7-23.4,23.7H392.9z"/>
		<path class="st0" d="M475.6,969.4c-26.1,0-46.3-19-46.3-46.8v-0.3c0-25.8,18.3-47,44.1-47c28.7,0,42.9,23.6,42.9,44.4
			c0,5.8-4.4,9.9-9.7,9.9H450c2.2,14.7,12.6,22.9,26,22.9c8.7,0,15.5-3.1,21.3-7.9c1.5-1.2,2.9-1.9,5.3-1.9c4.6,0,8.2,3.6,8.2,8.4
			c0,2.6-1.2,4.8-2.7,6.3C499.8,964.8,489.6,969.4,475.6,969.4z M496.1,916c-1.4-13.3-9.2-23.7-22.9-23.7
			c-12.6,0-21.5,9.7-23.4,23.7H496.1z"/>
		<path class="st0" d="M537.4,886.6c0-5.8,4.4-10.4,10.2-10.4c5.8,0,10.4,4.6,10.4,10.4v4.4c5.8-8.4,14.2-15.7,28.2-15.7
			c20.3,0,32.1,13.7,32.1,34.5V958c0,5.8-4.4,10.2-10.2,10.2c-5.8,0-10.4-4.4-10.4-10.2v-41.8c0-14-7-22-19.3-22
			c-12,0-20.3,8.4-20.3,22.4V958c0,5.8-4.6,10.2-10.4,10.2c-5.6,0-10.2-4.4-10.2-10.2V886.6z"/>
		<path class="st0" d="M639.8,958.3c-2.2-1.2-3.9-3.8-3.9-7.2c0-4.6,3.6-8.4,8.4-8.4c1.7,0,3.2,0.5,4.4,1.2c8.7,5.8,17.8,8.7,26,8.7
			c8.9,0,14-3.8,14-9.7v-0.3c0-7-9.6-9.4-20.1-12.6c-13.3-3.8-28.2-9.2-28.2-26.5v-0.3c0-17.1,14.2-27.5,32.1-27.5
			c9.6,0,19.6,2.7,28.3,7.3c2.9,1.5,5,4.3,5,7.9c0,4.8-3.8,8.4-8.5,8.4c-1.7,0-2.7-0.3-4.1-1c-7.3-3.8-14.9-6.1-21.2-6.1
			c-8,0-12.6,3.8-12.6,8.9v0.3c0,6.7,9.7,9.4,20.3,12.8c13.1,4.1,28,10.1,28,26.3v0.3c0,19-14.7,28.3-33.5,28.3
			C662.7,969.1,650.2,965.5,639.8,958.3z"/>
		<path class="st0" d="M808.9,958c0,5.6-4.6,10.2-10.4,10.2c-5.6,0-10.4-4.4-10.4-10.2v-4.6c-5.8,8.5-14.2,15.9-28.2,15.9
			c-20.3,0-32.1-13.7-32.1-34.7v-48c0-5.8,4.6-10.4,10.2-10.4c5.8,0,10.4,4.6,10.4,10.4v41.8c0,14,7,21.9,19.3,21.9
			c12,0,20.3-8.2,20.3-22.2v-41.5c0-5.8,4.6-10.4,10.4-10.4c5.6,0,10.4,4.6,10.4,10.4V958z"/>
		<path class="st0" d="M834.6,886.6c0-5.8,4.4-10.4,10.2-10.4c5.8,0,10.4,4.6,10.4,10.4v4.3c5.8-8,13.7-15.5,27.5-15.5
			c13,0,22.2,6.3,27,15.9c7.2-9.6,16.7-15.9,30.4-15.9c19.6,0,31.6,12.5,31.6,34.5V958c0,5.8-4.4,10.2-10.2,10.2
			c-5.8,0-10.4-4.4-10.4-10.2v-41.8c0-14.3-6.7-22-18.3-22c-11.3,0-19.3,7.9-19.3,22.4V958c0,5.8-4.6,10.2-10.2,10.2
			c-5.8,0-10.4-4.4-10.4-10.2v-42c0-14-6.8-21.9-18.3-21.9c-11.4,0-19.3,8.5-19.3,22.4V958c0,5.8-4.6,10.2-10.4,10.2
			c-5.6,0-10.2-4.4-10.2-10.2V886.6z"/>
		<path class="st0" d="M1038.2,969.4c-26.1,0-46.3-19-46.3-46.8v-0.3c0-25.8,18.3-47,44.1-47c28.7,0,42.9,23.6,42.9,44.4
			c0,5.8-4.4,9.9-9.7,9.9h-56.5c2.2,14.7,12.6,22.9,26,22.9c8.7,0,15.5-3.1,21.3-7.9c1.5-1.2,2.9-1.9,5.3-1.9c4.6,0,8.2,3.6,8.2,8.4
			c0,2.6-1.2,4.8-2.7,6.3C1062.4,964.8,1052.2,969.4,1038.2,969.4z M1058.7,916c-1.4-13.3-9.2-23.7-22.9-23.7
			c-12.6,0-21.5,9.7-23.4,23.7H1058.7z"/>
		<path class="st0" d="M1100,886.6c0-5.8,4.4-10.4,10.2-10.4c5.8,0,10.4,4.6,10.4,10.4v9.2c4.8-11.3,13.7-19.8,22.7-19.8
			c6.5,0,10.2,4.3,10.2,10.2c0,5.5-3.6,9-8.2,9.9c-14.7,2.6-24.8,13.8-24.8,35.2V958c0,5.6-4.6,10.2-10.4,10.2
			c-5.6,0-10.2-4.4-10.2-10.2V886.6z"/>
		<path class="st0" d="M1167.4,886.6c7.9-2.4,12-7.7,11.6-15.4c-5-1.2-9.7-5.3-9.7-11.4v-1.4c0-6.5,4.6-11.4,11.6-11.4
			c7.5,0,12.3,5.8,12.3,15v1.7c0,11.6-3.1,19.6-8.4,24.9c-4.6,4.6-11.3,7.3-16.1,7.3c-3.6,0-5.3-2-5.3-4.8
			C1163.5,888.8,1165.2,887.3,1167.4,886.6z"/>
		<path class="st0" d="M1213,958.3c-2.2-1.2-3.9-3.8-3.9-7.2c0-4.6,3.6-8.4,8.4-8.4c1.7,0,3.2,0.5,4.4,1.2c8.7,5.8,17.8,8.7,26,8.7
			c8.9,0,14-3.8,14-9.7v-0.3c0-7-9.6-9.4-20.1-12.6c-13.3-3.8-28.2-9.2-28.2-26.5v-0.3c0-17.1,14.2-27.5,32.1-27.5
			c9.6,0,19.6,2.7,28.3,7.3c2.9,1.5,5,4.3,5,7.9c0,4.8-3.8,8.4-8.5,8.4c-1.7,0-2.7-0.3-4.1-1c-7.3-3.8-14.9-6.1-21.2-6.1
			c-8,0-12.6,3.8-12.6,8.9v0.3c0,6.7,9.7,9.4,20.3,12.8c13.1,4.1,28,10.1,28,26.3v0.3c0,19-14.7,28.3-33.5,28.3
			C1235.9,969.1,1223.4,965.5,1213,958.3z"/>
		<path class="st0" d="M1355.6,858.4c0-6,4.6-10.6,10.6-10.6h36.5c28,0,45.4,15.9,45.4,40v0.3c0,26.8-21.5,40.8-47.8,40.8h-23.7
			v28.9c0,5.8-4.6,10.4-10.4,10.4c-6,0-10.6-4.6-10.6-10.4V858.4z M1401,910c15.9,0,25.8-8.9,25.8-21.3v-0.3
			c0-14-10.1-21.3-25.8-21.3h-24.4v43H1401z"/>
		<path class="st0" d="M1467.2,886.6c0-5.8,4.4-10.4,10.2-10.4c5.8,0,10.4,4.6,10.4,10.4v9.2c4.8-11.3,13.7-19.8,22.7-19.8
			c6.5,0,10.2,4.3,10.2,10.2c0,5.5-3.6,9-8.2,9.9c-14.7,2.6-24.8,13.8-24.8,35.2V958c0,5.6-4.6,10.2-10.4,10.2
			c-5.6,0-10.2-4.4-10.2-10.2V886.6z"/>
		<path class="st0" d="M1537.4,853c0-6.1,5.1-10.1,11.8-10.1c6.7,0,11.8,3.9,11.8,10.1v1c0,6.1-5.1,10.2-11.8,10.2
			c-6.7,0-11.8-4.1-11.8-10.2V853z M1539,886.6c0-5.8,4.4-10.4,10.2-10.4c5.8,0,10.4,4.6,10.4,10.4V958c0,5.8-4.6,10.2-10.4,10.2
			c-5.6,0-10.2-4.4-10.2-10.2V886.6z"/>
		<path class="st0" d="M1675.2,958c0,5.8-4.6,10.2-10.2,10.2c-5.8,0-10.4-4.4-10.4-10.2v-5.6c-6.7,9.4-16.1,16.9-30.7,16.9
			c-21.2,0-41.8-16.9-41.8-46.8v-0.3c0-29.9,20.3-46.8,41.8-46.8c14.9,0,24.2,7.3,30.7,15.9v-39.1c0-5.8,4.6-10.2,10.2-10.2
			c5.8,0,10.4,4.4,10.4,10.2V958z M1602.8,922.1v0.3c0,17.4,12,28.9,26,28.9c13.8,0,26.1-11.6,26.1-28.9v-0.3
			c0-17.4-12.3-28.9-26.1-28.9C1614.6,893.3,1602.8,904.2,1602.8,922.1z"/>
		<path class="st0" d="M1742.5,969.4c-26.1,0-46.3-19-46.3-46.8v-0.3c0-25.8,18.3-47,44.1-47c28.7,0,42.9,23.6,42.9,44.4
			c0,5.8-4.4,9.9-9.7,9.9h-56.5c2.2,14.7,12.6,22.9,26,22.9c8.7,0,15.5-3.1,21.3-7.9c1.5-1.2,2.9-1.9,5.3-1.9c4.6,0,8.2,3.6,8.2,8.4
			c0,2.6-1.2,4.8-2.7,6.3C1766.7,964.8,1756.5,969.4,1742.5,969.4z M1763,916c-1.4-13.3-9.2-23.7-22.9-23.7
			c-12.6,0-21.5,9.7-23.4,23.7H1763z"/>
	</g>
	<g>
		<path class="st0" d="M353.9,4h-97.2v202.4c-23.4-11.6-49.8-18.2-77.7-18.2c-96.6,0-175,78.3-175,175s78.3,175,175,175
			c96.6,0,175-78.3,175-175c0-1.1,0-2.2,0-3.3V4z M176.8,432.9c-39.1,0-70.7-31.7-70.7-70.7c0-39.1,31.7-70.7,70.7-70.7
			c39.1,0,70.7,31.7,70.7,70.7C247.5,401.3,215.8,432.9,176.8,432.9z"/>
		<path class="st0" d="M566.7,188.3c-96.6,0-175,78.3-175,175s68.8,175,165.4,175c27.6,0,60-10.7,87.3-28.4v53.9h97.2V363.2h0
			C741.7,266.6,663.4,188.3,566.7,188.3z M566.8,432.9c-39.1,0-70.7-31.7-70.7-70.7c0-39.1,31.7-70.7,70.7-70.7s70.7,31.7,70.7,70.7
			C637.5,401.3,605.8,432.9,566.8,432.9z"/>
		<path class="st0" d="M955.3,188.3c-96.6,0-175,78.3-175,175s78.3,175,175,175c96.6,0,175-78.3,175-175S1052,188.3,955.3,188.3z
			 M955.2,432.9c-39.1,0-70.7-31.7-70.7-70.7c0-39.1,31.7-70.7,70.7-70.7c39.1,0,70.7,31.7,70.7,70.7
			C1026,401.3,994.3,432.9,955.2,432.9z"/>
		<path class="st0" d="M1733.4,188.3c-96.6,0-175,78.3-175,175s78.3,175,175,175c96.6,0,175-78.3,175-175S1830,188.3,1733.4,188.3z
			 M1733,432.9c-39.1,0-70.7-31.7-70.7-70.7c0-39.1,31.7-70.7,70.7-70.7c39.1,0,70.7,31.7,70.7,70.7
			C1803.7,401.3,1772,432.9,1733,432.9z"/>
		<path class="st0" d="M1519.9,361.3L1519.9,361.3c-1.1-95.8-79-173.1-175-173.1c-96.6,0-175,78.3-175,175s68.8,175,165.4,175
			c23.9,0,51.4-8,76-21.6c-7.7,20.5-20.2,42.6-40.3,61.6c-31.5,29.7-77,45.3-135.8,46.5v96.1c84.8-1.4,152.8-26,202.7-73.7
			c83.1-79.3,82.4-186.5,81.8-202.1V361.3z M1345,432.9c-39.1,0-70.7-31.7-70.7-70.7c0-39.1,31.7-70.7,70.7-70.7
			c39.1,0,70.7,31.7,70.7,70.7C1415.7,401.3,1384,432.9,1345,432.9z"/>
	</g>
</g>
</svg>
