<svg xmlns="http://www.w3.org/2000/svg" width="22.667" height="17" viewBox="0 0 22.667 17">
  <g id="people-fill" transform="translate(0 -4.5)">
    <path id="패스_1904" data-name="패스 1904" d="M9.917,21.5A1.387,1.387,0,0,1,8.5,20.083c0-1.417,1.417-5.667,7.083-5.667s7.083,4.25,7.083,5.667A1.387,1.387,0,0,1,21.25,21.5ZM15.583,13a4.25,4.25,0,1,0-4.25-4.25A4.25,4.25,0,0,0,15.583,13ZM7.389,21.5a3.17,3.17,0,0,1-.306-1.417,6.76,6.76,0,0,1,2.743-5.27,8.96,8.96,0,0,0-2.743-.4C1.417,14.417,0,18.667,0,20.083A1.387,1.387,0,0,0,1.417,21.5ZM6.375,13A3.542,3.542,0,1,0,2.833,9.458,3.542,3.542,0,0,0,6.375,13Z" fill="#67ac5b" fill-rule="evenodd"/>
  </g>
</svg>
