<svg id="people-circle" xmlns="http://www.w3.org/2000/svg" width="20.684" height="20.684" viewBox="0 0 20.684 20.684">
  <path id="패스_1901" data-name="패스 1901" d="M19.834,25.564C18.916,24.085,16.9,22.5,12.766,22.5S6.616,24.083,5.7,25.564a9.049,9.049,0,0,0,14.137,0Z" transform="translate(-2.424 -9.573)" fill="#67ac5b"/>
  <path id="패스_1902" data-name="패스 1902" d="M15.128,14.506a3.878,3.878,0,1,0-3.878-3.878A3.878,3.878,0,0,0,15.128,14.506Z" transform="translate(-4.786 -2.872)" fill="#67ac5b" fill-rule="evenodd"/>
  <path id="패스_1903" data-name="패스 1903" d="M10.342,1.293a9.049,9.049,0,1,0,9.049,9.049A9.049,9.049,0,0,0,10.342,1.293ZM0,10.342A10.342,10.342,0,1,1,10.342,20.684,10.342,10.342,0,0,1,0,10.342Z" fill="#67ac5b" fill-rule="evenodd"/>
</svg>
