<svg xmlns="http://www.w3.org/2000/svg" width="14.348" height="16.537" viewBox="0 0 14.348 16.537">
  <g id="그룹_686" data-name="그룹 686" transform="translate(-706.604 -589.65)">
    <g id="그룹_684" data-name="그룹 684" transform="translate(706.604 589.65)">
      <path id="패스_1843" data-name="패스 1843" d="M1376.9,980.789l7.153-4.157-.023,8.24-7.154,4.157Z" transform="translate(-1369.706 -972.492)" fill="#6b3fce"/>
      <path id="패스_1844" data-name="패스 1844" d="M713.8,982.369l-.023,8.24-7.171-4.14.023-8.24Z" transform="translate(-706.604 -974.072)" fill="#6b3fce" opacity="0.642"/>
      <path id="패스_1845" data-name="패스 1845" d="M715.941,589.65l-.006,0-7.147,4.154,7.171,4.14,7.153-4.157Z" transform="translate(-708.764 -589.65)" fill="#6b3fce" opacity="0.301"/>
    </g>
    <g id="그룹_685" data-name="그룹 685" transform="translate(711.921 592.372)">
      <path id="패스_1846" data-name="패스 1846" d="M1219.782,857.837a.676.676,0,0,0-.339-.084.649.649,0,0,0-.336.081q-.159.092-.145.2a.266.266,0,0,0,.151.19.686.686,0,0,0,.323.083.634.634,0,0,0,.347-.084.23.23,0,0,0,.14-.193.233.233,0,0,0-.142-.194m2.77-1.547a2.257,2.257,0,0,0-.757-.272,2.545,2.545,0,0,0-.762-.022,1.543,1.543,0,0,0-.568.171.184.184,0,0,0-.1.161.2.2,0,0,0,.124.174.664.664,0,0,0,.543.021,2.216,2.216,0,0,1,.563-.1.936.936,0,0,1,.489.138q.211.122.223.271a.272.272,0,0,1-.168.253.625.625,0,0,1-.214.073,1.532,1.532,0,0,1-.25.02q-.128,0-.4-.01-.307-.012-.508-.007a1.926,1.926,0,0,0-.4.051,1.4,1.4,0,0,0-.384.155q-.15.087-.146.177a.2.2,0,0,0,.121.158.547.547,0,0,0,.5.02q.134-.049.19-.068a.969.969,0,0,1,.122-.031,1.179,1.179,0,0,1,.165-.016q.1,0,.244,0,.523.017.734.018a2.437,2.437,0,0,0,.431-.037,1.228,1.228,0,0,0,.411-.149.654.654,0,0,0,.311-.338.467.467,0,0,0-.061-.412,1.249,1.249,0,0,0-.457-.4" transform="translate(-1218.797 -855.851)" fill="#606060" opacity="0.6" style="mix-blend-mode: multiply;isolation: isolate"/>
      <path id="패스_1847" data-name="패스 1847" d="M1204.366,845.978a.676.676,0,0,0-.339-.085.648.648,0,0,0-.336.081q-.159.092-.145.2a.267.267,0,0,0,.151.19.686.686,0,0,0,.323.083.634.634,0,0,0,.347-.084.23.23,0,0,0,.14-.193.233.233,0,0,0-.142-.194m2.77-1.547a2.259,2.259,0,0,0-.757-.272,2.539,2.539,0,0,0-.762-.022,1.539,1.539,0,0,0-.567.171.184.184,0,0,0-.1.161.2.2,0,0,0,.124.174.664.664,0,0,0,.543.021,2.211,2.211,0,0,1,.563-.1.935.935,0,0,1,.489.138q.212.122.223.271a.272.272,0,0,1-.168.253.624.624,0,0,1-.214.073,1.539,1.539,0,0,1-.25.02q-.128,0-.4-.01-.307-.012-.508-.007a1.92,1.92,0,0,0-.4.051,1.4,1.4,0,0,0-.384.155q-.15.087-.146.177a.2.2,0,0,0,.121.158.547.547,0,0,0,.5.02q.134-.049.19-.068a.964.964,0,0,1,.122-.03,1.163,1.163,0,0,1,.165-.016q.1,0,.244,0,.523.017.734.018a2.43,2.43,0,0,0,.431-.037,1.228,1.228,0,0,0,.411-.149.655.655,0,0,0,.311-.338.467.467,0,0,0-.061-.412,1.249,1.249,0,0,0-.457-.4" transform="translate(-1203.545 -844.118)" fill="#2f2e34"/>
    </g>
  </g>
</svg>
