<svg xmlns="http://www.w3.org/2000/svg" width="18.797" height="15.69" viewBox="0 0 18.797 15.69">
  <g id="그룹_715" data-name="그룹 715" transform="translate(-156.149 -259.355)">
    <g id="그룹_687" data-name="그룹 687" transform="translate(156.149 259.355)">
      <path id="패스_1848" data-name="패스 1848" d="M158.222,260.392a1.037,1.037,0,1,1-1.037-1.037A1.036,1.036,0,0,1,158.222,260.392Z" transform="translate(-156.149 -259.355)" fill="#e57368"/>
    </g>
    <g id="그룹_688" data-name="그룹 688" transform="translate(160.565 270.073)">
      <path id="패스_1849" data-name="패스 1849" d="M183.57,294.349H171.679a.5.5,0,1,1,0-1H183.57a.5.5,0,1,1,0,1Z" transform="translate(-171.18 -293.352)" fill="#4ecdc4"/>
    </g>
    <g id="그룹_689" data-name="그룹 689" transform="translate(160.389 268.383)">
      <path id="패스_1850" data-name="패스 1850" d="M183.527,288.666H170.894a.312.312,0,1,1,0-.623h12.633a.312.312,0,0,1,0,.623Z" transform="translate(-170.582 -288.043)" fill="#4ecdc4"/>
    </g>
    <g id="그룹_690" data-name="그룹 690" transform="translate(160.018 266.512)">
      <path id="패스_1851" data-name="패스 1851" d="M183.006,282.721H169.63a.312.312,0,0,1,0-.623h13.375a.312.312,0,1,1,0,.623Z" transform="translate(-169.319 -282.098)" fill="#4ecdc4"/>
    </g>
    <g id="그룹_691" data-name="그룹 691" transform="translate(159.647 264.641)">
      <path id="패스_1852" data-name="패스 1852" d="M182.485,276.776H168.367a.311.311,0,1,1,0-.623h14.117a.311.311,0,1,1,0,.623Z" transform="translate(-168.056 -276.153)" fill="#4ecdc4"/>
    </g>
    <g id="그룹_692" data-name="그룹 692" transform="translate(159.276 262.77)">
      <path id="패스_1853" data-name="패스 1853" d="M181.964,270.831H167.1a.312.312,0,0,1,0-.623h14.86a.312.312,0,1,1,0,.623Z" transform="translate(-166.792 -270.208)" fill="#4ecdc4"/>
    </g>
    <g id="그룹_693" data-name="그룹 693" transform="translate(170.199 262.994)">
      <path id="패스_1854" data-name="패스 1854" d="M204.283,277.82a.311.311,0,0,1-.311-.311V270.52a.311.311,0,1,1,.623,0v6.989A.311.311,0,0,1,204.283,277.82Z" transform="translate(-203.972 -270.208)" fill="#4ecdc4"/>
    </g>
    <g id="그룹_694" data-name="그룹 694" transform="translate(168.452 262.994)">
      <path id="패스_1855" data-name="패스 1855" d="M198.338,277.818a.311.311,0,0,1-.312-.311V270.52a.312.312,0,1,1,.623,0v6.987A.311.311,0,0,1,198.338,277.818Z" transform="translate(-198.026 -270.208)" fill="#4ecdc4"/>
    </g>
    <g id="그룹_695" data-name="그룹 695" transform="translate(166.698 262.994)">
      <path id="패스_1856" data-name="패스 1856" d="M192.378,277.82a.311.311,0,0,1-.311-.311l-.011-6.989a.312.312,0,0,1,.311-.312h0a.312.312,0,0,1,.312.311l.011,6.989a.311.311,0,0,1-.311.312Z" transform="translate(-192.055 -270.208)" fill="#4ecdc4"/>
    </g>
    <g id="그룹_696" data-name="그룹 696" transform="translate(164.959 262.994)">
      <path id="패스_1857" data-name="패스 1857" d="M186.448,277.818a.311.311,0,0,1-.312-.311V270.52a.312.312,0,1,1,.623,0v6.987A.311.311,0,0,1,186.448,277.818Z" transform="translate(-186.136 -270.208)" fill="#4ecdc4"/>
    </g>
    <g id="그룹_697" data-name="그룹 697" transform="translate(163.213 262.994)">
      <path id="패스_1858" data-name="패스 1858" d="M180.5,277.818a.311.311,0,0,1-.311-.311V270.52a.312.312,0,1,1,.623,0v6.987A.311.311,0,0,1,180.5,277.818Z" transform="translate(-180.191 -270.208)" fill="#4ecdc4"/>
    </g>
    <g id="그룹_698" data-name="그룹 698" transform="translate(161.466 262.994)">
      <path id="패스_1859" data-name="패스 1859" d="M174.558,277.818a.311.311,0,0,1-.312-.311V270.52a.312.312,0,1,1,.623,0v6.987A.311.311,0,0,1,174.558,277.818Z" transform="translate(-174.246 -270.208)" fill="#4ecdc4"/>
    </g>
    <g id="그룹_699" data-name="그룹 699" transform="translate(159.719 262.81)">
      <path id="패스_1860" data-name="패스 1860" d="M168.612,272.917a.312.312,0,0,1-.311-.312V270.52a.312.312,0,1,1,.623,0v2.086A.312.312,0,0,1,168.612,272.917Z" transform="translate(-168.301 -270.208)" fill="#4ecdc4"/>
    </g>
    <g id="그룹_700" data-name="그룹 700" transform="translate(173.693 262.809)">
      <path id="패스_1861" data-name="패스 1861" d="M216.173,272.9a.311.311,0,0,1-.311-.311V270.52a.311.311,0,1,1,.623,0v2.071A.311.311,0,0,1,216.173,272.9Z" transform="translate(-215.862 -270.208)" fill="#4ecdc4"/>
    </g>
    <g id="그룹_701" data-name="그룹 701" transform="translate(171.946 262.994)">
      <path id="패스_1862" data-name="패스 1862" d="M210.228,277.82a.312.312,0,0,1-.312-.311V270.52a.312.312,0,0,1,.623,0v6.989A.311.311,0,0,1,210.228,277.82Z" transform="translate(-209.916 -270.208)" fill="#4ecdc4"/>
    </g>
    <g id="그룹_702" data-name="그룹 702" transform="translate(158.688 260.47)">
      <path id="패스_1863" data-name="패스 1863" d="M167.166,273.02a.5.5,0,0,1-.487-.4l-1.877-8.873a.5.5,0,1,1,.975-.206l1.877,8.873a.5.5,0,0,1-.385.591A.52.52,0,0,1,167.166,273.02Z" transform="translate(-164.791 -263.149)" fill="#4ecdc4"/>
    </g>
    <g id="그룹_703" data-name="그룹 703" transform="translate(172.457 262.804)">
      <path id="패스_1864" data-name="패스 1864" d="M212.155,277.555a.514.514,0,0,1-.1-.011.5.5,0,0,1-.383-.592l1.492-6.987a.5.5,0,0,1,.975.208l-1.492,6.987A.5.5,0,0,1,212.155,277.555Z" transform="translate(-211.656 -269.571)" fill="#4ecdc4"/>
    </g>
    <g id="그룹_704" data-name="그룹 704" transform="translate(156.687 259.893)">
      <path id="패스_1865" data-name="패스 1865" d="M160.48,262.76a.513.513,0,0,1-.138-.019l-2-.577a.5.5,0,0,1,.276-.958l2,.577a.5.5,0,0,1-.138.977Z" transform="translate(-157.979 -261.186)" fill="#4ecdc4"/>
    </g>
    <g id="그룹_705" data-name="그룹 705" transform="translate(160.565 270.343)">
      <path id="패스_1866" data-name="패스 1866" d="M171.679,296.354a.5.5,0,0,1-.5-.5v-2a.5.5,0,0,1,1,0v2A.5.5,0,0,1,171.679,296.354Z" transform="translate(-171.18 -293.352)" fill="#4ecdc4"/>
    </g>
    <g id="그룹_706" data-name="그룹 706" transform="translate(160.565 272.348)">
      <path id="패스_1867" data-name="패스 1867" d="M183.57,301.173H171.679a.5.5,0,1,1,0-1H183.57a.5.5,0,1,1,0,1Z" transform="translate(-171.18 -300.176)" fill="#4ecdc4"/>
    </g>
    <g id="그룹_709" data-name="그룹 709" transform="translate(161.257 272.968)">
      <g id="그룹_707" data-name="그룹 707" transform="translate(0 0)">
        <path id="패스_1868" data-name="패스 1868" d="M175.613,303.326a1.038,1.038,0,1,1-1.038-1.038A1.038,1.038,0,0,1,175.613,303.326Z" transform="translate(-173.536 -302.288)" fill="#bcbcbc"/>
      </g>
      <g id="그룹_708" data-name="그룹 708" transform="translate(0.402 0.402)">
        <circle id="타원_45" data-name="타원 45" cx="0.636" cy="0.636" r="0.636" fill="#424242"/>
      </g>
    </g>
    <g id="그룹_712" data-name="그룹 712" transform="translate(170.518 272.968)">
      <g id="그룹_710" data-name="그룹 710" transform="translate(0 0)">
        <path id="패스_1869" data-name="패스 1869" d="M207.134,303.326a1.038,1.038,0,1,1-1.038-1.038A1.038,1.038,0,0,1,207.134,303.326Z" transform="translate(-205.057 -302.288)" fill="#bcbcbc"/>
      </g>
      <g id="그룹_711" data-name="그룹 711" transform="translate(0.402 0.402)">
        <circle id="타원_46" data-name="타원 46" cx="0.636" cy="0.636" r="0.636" fill="#424242"/>
      </g>
    </g>
    <g id="그룹_713" data-name="그룹 713" transform="translate(161.984 272.535)">
      <path id="패스_1870" data-name="패스 1870" d="M176.321,302.6a.312.312,0,0,1-.312-.312v-1.16a.312.312,0,0,1,.623,0v1.16A.312.312,0,0,1,176.321,302.6Z" transform="translate(-176.009 -300.813)" fill="#4ecdc4"/>
    </g>
    <g id="그룹_714" data-name="그룹 714" transform="translate(171.245 272.535)">
      <path id="패스_1871" data-name="패스 1871" d="M207.842,302.6a.312.312,0,0,1-.311-.312v-1.16a.312.312,0,0,1,.623,0v1.16A.312.312,0,0,1,207.842,302.6Z" transform="translate(-207.531 -300.813)" fill="#4ecdc4"/>
    </g>
  </g>
</svg>
