<svg xmlns="http://www.w3.org/2000/svg" width="18.145" height="16.67" viewBox="0 0 18.145 16.67">
  <g id="그룹_667" data-name="그룹 667" transform="translate(-197 -687)">
    <g id="그룹_665" data-name="그룹 665" transform="translate(197 687)">
      <path id="패스_1802" data-name="패스 1802" d="M-649.829,55.391c-5.011,0-9.073,3.211-9.073,7.172,0,2.578,1.721,4.838,4.3,6.1-.19.709-.687,2.567-.787,2.964-.123.493.181.487.38.354.156-.1,2.486-1.688,3.492-2.372a11.485,11.485,0,0,0,1.684.124c5.011,0,9.073-3.212,9.073-7.173s-4.062-7.172-9.073-7.172" transform="translate(658.902 -55.391)" fill="#391b1b"/>
      <g id="그룹_592" data-name="그룹 592" transform="translate(1.934 5.074)">
        <path id="패스_46" data-name="패스 46" d="M-606.622,163.048h-2.545a.433.433,0,0,0-.433.433.433.433,0,0,0,.433.433h.827v3.049a.424.424,0,0,0,.125.3.422.422,0,0,0,.3.123h.092a.422.422,0,0,0,.3-.123.424.424,0,0,0,.125-.3v-3.049h.782a.433.433,0,0,0,.433-.433A.433.433,0,0,0-606.622,163.048Z" transform="translate(609.6 -162.987)" fill="#fae300"/>
        <path id="패스_47" data-name="패스 47" d="M-452.845,165.278h-1.183v-3.114a.47.47,0,0,0-.469-.47.47.47,0,0,0-.47.47v3.356a.456.456,0,0,0,.007.075.4.4,0,0,0-.007.075.393.393,0,0,0,.393.393h1.73a.393.393,0,0,0,.393-.393A.392.392,0,0,0-452.845,165.278Z" transform="translate(462.994 -161.694)" fill="#fae300"/>
        <path id="패스_48" data-name="패스 48" d="M-390.224,165.421l-1.319-1.732,1.192-1.192a.413.413,0,0,0,0-.584.414.414,0,0,0-.585,0l-1.475,1.475v-1.223a.47.47,0,0,0-.469-.47.47.47,0,0,0-.47.47v3.459a.469.469,0,0,0,.47.47.469.469,0,0,0,.469-.47v-1.067l.268-.268,1.248,1.637a.419.419,0,0,0,.588.084A.42.42,0,0,0-390.224,165.421Z" transform="translate(404.681 -161.694)" fill="#fae300"/>
        <path id="패스_49" data-name="패스 49" d="M-542.8,165.533l-1.268-3.47,0,0a.623.623,0,0,0-.594-.365.605.605,0,0,0-.617.437.581.581,0,0,0-.024.057l-1.247,3.345a.421.421,0,0,0,.257.536.421.421,0,0,0,.537-.258l.216-.616h1.736l.216.616a.421.421,0,0,0,.536.258A.421.421,0,0,0-542.8,165.533Zm-2.47-1.123.583-1.664.019,0,.583,1.663Z" transform="translate(549.909 -161.694)" fill="#fae300"/>
      </g>
    </g>
  </g>
</svg>
