<svg id="그룹_669" data-name="그룹 669" xmlns="http://www.w3.org/2000/svg" width="10.865" height="16.011" viewBox="0 0 10.865 16.011">
  <path id="패스_229" data-name="패스 229" d="M542.03,118.758a2.32,2.32,0,1,1-2.32-2.321A2.32,2.32,0,0,1,542.03,118.758Z" transform="translate(-535.31 -116.437)" fill="#2f2f2f"/>
  <path id="패스_230" data-name="패스 230" d="M545.58,129.722a2.3,2.3,0,0,0-.034-.339l.725-.6-.686-1.188-.883.329a2.319,2.319,0,0,0-.587-.345l-.157-.922h-1.372l-.157.922a2.32,2.32,0,0,0-.587.345l-.883-.329-.686,1.188.726.6a1.669,1.669,0,0,0,0,.679l-.726.6.686,1.188.883-.329a2.292,2.292,0,0,0,.587.345l.157.923h1.372l.157-.923a2.319,2.319,0,0,0,.587-.345l.883.329.686-1.188-.725-.6A2.3,2.3,0,0,0,545.58,129.722Zm-2.307,1.248a1.247,1.247,0,1,1,1.247-1.248A1.248,1.248,0,0,1,543.272,130.97Z" transform="translate(-535.406 -116.778)" fill="#097139"/>
  <path id="패스_231" data-name="패스 231" d="M539.162,129.554a3.932,3.932,0,0,1,4.86-3.83,4.4,4.4,0,0,0-8.784.3v4.161h3.979A4,4,0,0,1,539.162,129.554Z" transform="translate(-535.238 -116.61)" fill="#2f2f2f"/>
</svg>
