<svg xmlns="http://www.w3.org/2000/svg" width="18.903" height="16.564" viewBox="0 0 18.903 16.564">
  <g id="그룹_683" data-name="그룹 683" transform="translate(-245.627 -136.355)">
    <g id="그룹_682" data-name="그룹 682" transform="translate(245.627 136.355)">
      <g id="그룹_678" data-name="그룹 678" transform="translate(5.637 12.039)">
        <g id="그룹_675" data-name="그룹 675" transform="translate(1.058)">
          <g id="그룹_674" data-name="그룹 674">
            <rect id="사각형_367" data-name="사각형 367" width="2.116" height="3.102" transform="translate(4.42)" fill="#d4614f"/>
            <rect id="사각형_368" data-name="사각형 368" width="2.116" height="3.102" fill="#d4614f"/>
          </g>
          <path id="패스_1828" data-name="패스 1828" d="M295.552,191.439l1.058-.311,1.058.311v-.949h-2.116Z" transform="translate(-291.133 -187.388)" fill="#424241"/>
          <path id="패스_1829" data-name="패스 1829" d="M279.75,191.439l1.058-.311,1.058.311v-.949H279.75Z" transform="translate(-279.75 -187.388)" fill="#424241"/>
        </g>
        <g id="그룹_677" data-name="그룹 677" transform="translate(0 0.475)">
          <g id="그룹_676" data-name="그룹 676">
            <rect id="사각형_369" data-name="사각형 369" width="2.116" height="3.102" transform="translate(4.42)" fill="#e96b57"/>
            <rect id="사각형_370" data-name="사각형 370" width="2.116" height="3.102" fill="#e96b57"/>
          </g>
          <path id="패스_1830" data-name="패스 1830" d="M291.769,193.136l1.058-.311,1.058.311v-.949h-2.116Z" transform="translate(-287.349 -189.085)" fill="#575756"/>
          <path id="패스_1831" data-name="패스 1831" d="M275.967,193.136l1.058-.311,1.058.311v-.949h-2.116Z" transform="translate(-275.967 -189.085)" fill="#575756"/>
        </g>
      </g>
      <path id="패스_1832" data-name="패스 1832" d="M304.97,147.959h2.057v-3.042a.2.2,0,0,0-.333-.137A5.77,5.77,0,0,0,304.97,147.959Z" transform="translate(-291.221 -142.383)" fill="#d4614f"/>
      <ellipse id="타원_44" data-name="타원 44" cx="7.266" cy="5.657" rx="7.266" ry="5.657" transform="translate(2.168 2.466)" fill="#e96b57"/>
      <rect id="사각형_371" data-name="사각형 371" width="3.476" height="3.866" transform="translate(14.474 6.621)" fill="#e96b57"/>
      <path id="패스_1833" data-name="패스 1833" d="M317.53,160.027c.526-.009.957.849.961,1.917s-.419,1.94-.945,1.949-.957-.849-.961-1.917S317,160.036,317.53,160.027Z" transform="translate(-299.588 -153.406)" fill="#e9a397"/>
      <path id="패스_1834" data-name="패스 1834" d="M318.138,165.62c.1,0,.183.162.184.366s-.08.37-.18.372-.183-.162-.184-.366S318.038,165.622,318.138,165.62Z" transform="translate(-300.577 -157.435)" fill="#b55344"/>
      <path id="패스_1835" data-name="패스 1835" d="M321.284,165.62c.1,0,.183.162.183.366s-.08.37-.18.372-.183-.162-.183-.366S321.184,165.622,321.284,165.62Z" transform="translate(-302.843 -157.435)" fill="#b55344"/>
      <path id="패스_1836" data-name="패스 1836" d="M304.97,158.763a.491.491,0,1,0,.491-.491A.491.491,0,0,0,304.97,158.763Z" transform="translate(-291.221 -152.142)" fill="#994639"/>
      <path id="패스_1838" data-name="패스 1838" d="M257.07,163.067a1.438,1.438,0,0,0,1.381-1.052.2.2,0,0,0-.378-.105,1.043,1.043,0,0,1-1.285.726.8.8,0,0,1-.553-.979.6.6,0,0,1,.735-.415.439.439,0,0,1,.3.54.311.311,0,0,1-.383.216.2.2,0,1,0-.105.378.7.7,0,0,0,.867-.489.832.832,0,0,0-.578-1.023.99.99,0,0,0-1.219.688,1.189,1.189,0,0,0,.826,1.463A1.445,1.445,0,0,0,257.07,163.067Z" transform="translate(-255.813 -153.982)" fill="#e96b57"/>
      <path id="패스_1839" data-name="패스 1839" d="M301.321,147.959h1.506v-3.042a.2.2,0,0,0-.333-.137,5.9,5.9,0,0,0-1.6,2.628A.439.439,0,0,0,301.321,147.959Z" transform="translate(-288.274 -142.383)" fill="#d4614f"/>
      <g id="그룹_681" data-name="그룹 681" transform="translate(7.163)">
        <g id="그룹_680" data-name="그룹 680">
          <path id="패스_1840" data-name="패스 1840" d="M281.568,148.695a13.6,13.6,0,0,1,4.255,0l.143-.905a14.513,14.513,0,0,0-4.541,0Q281.5,148.242,281.568,148.695Z" transform="translate(-281.425 -144.463)" fill="#994639"/>
          <path id="패스_1841" data-name="패스 1841" d="M286.544,138.155a1.8,1.8,0,1,1-1.8-1.8A1.8,1.8,0,0,1,286.544,138.155Z" transform="translate(-282.519 -136.355)" fill="#ffcd2e"/>
        </g>
        <path id="패스_1842" data-name="패스 1842" d="M284.744,136.748a1.407,1.407,0,1,1-1.407,1.407,1.409,1.409,0,0,1,1.407-1.407Zm0-.393a1.8,1.8,0,1,0,1.8,1.8,1.8,1.8,0,0,0-1.8-1.8Z" transform="translate(-282.519 -136.355)" fill="#ffb700"/>
      </g>
      <text id="_" data-name="₩" transform="translate(6.045 11.451)" fill="#fff" font-size="7" font-family="SegoeUI-Bold, Segoe UI" font-weight="700"><tspan x="0" y="0">₩</tspan></text>
    </g>
  </g>
</svg>
