<svg xmlns="http://www.w3.org/2000/svg" width="19.287" height="19.287" viewBox="0 0 19.287 19.287">
  <g id="그룹_654" data-name="그룹 654" transform="translate(-20.5 -21.5)">
    <path id="패스_1784" data-name="패스 1784" d="M18.134,7.892l-8,4L9.621,10.87l8-4,.512,1.022Zm-.512,10.286-8-4,.512-1.022,8,4-.512,1.022Z" transform="translate(16.266 18.62)" fill="#67ac5b" stroke="#66ac5b" stroke-linecap="round" stroke-width="1" fill-rule="evenodd"/>
    <path id="패스_1785" data-name="패스 1785" d="M15.43,4.572a1.714,1.714,0,1,0-1.714-1.714A1.714,1.714,0,0,0,15.43,4.572Zm0,1.143a2.857,2.857,0,1,0-2.857-2.857A2.857,2.857,0,0,0,15.43,5.715Zm0,11.429a1.714,1.714,0,1,0-1.714-1.714A1.714,1.714,0,0,0,15.43,17.144Zm0,1.143a2.857,2.857,0,1,0-2.857-2.857A2.857,2.857,0,0,0,15.43,18.287ZM2.857,10.858A1.714,1.714,0,1,0,1.143,9.144,1.714,1.714,0,0,0,2.857,10.858Zm0,1.143A2.857,2.857,0,1,0,0,9.144,2.857,2.857,0,0,0,2.857,12Z" transform="translate(21 22)" fill="#67ac5b" stroke="#66ac5b" stroke-width="1" fill-rule="evenodd"/>
  </g>
</svg>
