<svg xmlns="http://www.w3.org/2000/svg" width="15.432" height="14.697" viewBox="0 0 15.432 14.697">
  <g id="그룹_668" data-name="그룹 668" transform="translate(-61 -687)">
    <g id="그룹_593" data-name="그룹 593" transform="translate(61 687)">
      <g id="그룹_385" data-name="그룹 385">
        <path id="패스_359" data-name="패스 359" d="M103.936,78.884l-7.318,5.193h14.636Z" transform="translate(-96.219 -78.884)" fill="#07499d"/>
        <path id="패스_360" data-name="패스 360" d="M102.65,87.089l5.529-3.924,5.529,3.924Z" transform="translate(-100.462 -81.896)" fill="#07499d"/>
        <rect id="사각형_194" data-name="사각형 194" width="15.432" height="0.976" transform="translate(0 5.348)" fill="#07499d"/>
        <rect id="사각형_195" data-name="사각형 195" width="15.432" height="0.976" transform="translate(0 13.721)" fill="#07499d"/>
        <g id="그룹_390" data-name="그룹 390" transform="translate(12.561 6.332)">
          <g id="그룹_379" data-name="그룹 379" transform="translate(0)">
            <g id="그룹_376" data-name="그룹 376" transform="translate(0)">
              <g id="그룹_375" data-name="그룹 375" transform="translate(0.29 0.349)">
                <rect id="사각형_214" data-name="사각형 214" width="1.353" height="0.635" fill="#07499d"/>
              </g>
              <rect id="사각형_215" data-name="사각형 215" width="1.933" height="0.469" rx="0.235" fill="#07499d"/>
              <path id="사각형_216" data-name="사각형 216" d="M.235,0H1.528a.235.235,0,0,1,.235.235v0a.235.235,0,0,1-.235.235H.235A.235.235,0,0,1,0,.235v0A.235.235,0,0,1,.235,0Z" transform="translate(0.085 0.624)" fill="#07499d"/>
            </g>
            <g id="그룹_378" data-name="그룹 378" transform="translate(0 6.53)">
              <g id="그룹_377" data-name="그룹 377" transform="translate(0.29 0.109)">
                <rect id="사각형_217" data-name="사각형 217" width="1.353" height="0.635" transform="translate(1.353 0.635) rotate(180)" fill="#07499d"/>
              </g>
              <rect id="사각형_218" data-name="사각형 218" width="1.933" height="0.469" rx="0.235" transform="translate(1.933 1.093) rotate(180)" fill="#07499d"/>
              <path id="사각형_219" data-name="사각형 219" d="M.235,0H1.528a.235.235,0,0,1,.235.235v0a.235.235,0,0,1-.235.235H.235A.235.235,0,0,1,0,.235v0A.235.235,0,0,1,.235,0Z" transform="translate(1.848 0.469) rotate(180)" fill="#07499d"/>
            </g>
          </g>
          <rect id="사각형_220" data-name="사각형 220" width="1.009" height="7.14" transform="translate(0.462 0.242)" fill="#07499d"/>
        </g>
        <g id="그룹_389" data-name="그룹 389" transform="translate(9.653 6.332)">
          <g id="그룹_374" data-name="그룹 374" transform="translate(0)">
            <g id="그룹_371" data-name="그룹 371" transform="translate(0)">
              <g id="그룹_370" data-name="그룹 370" transform="translate(0.29 0.349)">
                <rect id="사각형_208" data-name="사각형 208" width="1.353" height="0.635" fill="#07499d"/>
              </g>
              <path id="사각형_209" data-name="사각형 209" d="M.235,0H1.7a.235.235,0,0,1,.235.235v0A.235.235,0,0,1,1.7.469H.235A.235.235,0,0,1,0,.235v0A.235.235,0,0,1,.235,0Z" fill="#07499d"/>
              <path id="사각형_210" data-name="사각형 210" d="M.235,0H1.528a.235.235,0,0,1,.235.235v0a.235.235,0,0,1-.235.235H.235A.235.235,0,0,1,0,.235v0A.235.235,0,0,1,.235,0Z" transform="translate(0.085 0.624)" fill="#07499d"/>
            </g>
            <g id="그룹_373" data-name="그룹 373" transform="translate(0 6.53)">
              <g id="그룹_372" data-name="그룹 372" transform="translate(0.29 0.109)">
                <rect id="사각형_211" data-name="사각형 211" width="1.353" height="0.635" transform="translate(1.353 0.635) rotate(180)" fill="#07499d"/>
              </g>
              <path id="사각형_212" data-name="사각형 212" d="M.235,0H1.7a.235.235,0,0,1,.235.235v0A.235.235,0,0,1,1.7.469H.235A.235.235,0,0,1,0,.235v0A.235.235,0,0,1,.235,0Z" transform="translate(1.933 1.093) rotate(180)" fill="#07499d"/>
              <path id="사각형_213" data-name="사각형 213" d="M.235,0H1.528a.235.235,0,0,1,.235.235v0a.235.235,0,0,1-.235.235H.235A.235.235,0,0,1,0,.235v0A.235.235,0,0,1,.235,0Z" transform="translate(1.848 0.469) rotate(180)" fill="#07499d"/>
            </g>
          </g>
          <rect id="사각형_221" data-name="사각형 221" width="1.009" height="7.14" transform="translate(0.462 0.242)" fill="#07499d"/>
        </g>
        <g id="그룹_392" data-name="그룹 392" transform="translate(3.836 6.332)">
          <g id="그룹_366" data-name="그룹 366">
            <g id="그룹_365" data-name="그룹 365" transform="translate(0.29 0.349)">
              <rect id="사각형_202" data-name="사각형 202" width="1.353" height="0.635" fill="#07499d"/>
            </g>
            <path id="사각형_203" data-name="사각형 203" d="M.235,0H1.7a.235.235,0,0,1,.235.235v0A.235.235,0,0,1,1.7.469H.235A.235.235,0,0,1,0,.235v0A.235.235,0,0,1,.235,0Z" fill="#07499d"/>
            <path id="사각형_204" data-name="사각형 204" d="M.235,0H1.528a.235.235,0,0,1,.235.235v0a.235.235,0,0,1-.235.235H.235A.235.235,0,0,1,0,.235v0A.235.235,0,0,1,.235,0Z" transform="translate(0.085 0.624)" fill="#07499d"/>
          </g>
          <g id="그룹_368" data-name="그룹 368" transform="translate(0 6.53)">
            <g id="그룹_367" data-name="그룹 367" transform="translate(0.29 0.109)">
              <rect id="사각형_205" data-name="사각형 205" width="1.353" height="0.635" transform="translate(1.353 0.635) rotate(180)" fill="#07499d"/>
            </g>
            <path id="사각형_206" data-name="사각형 206" d="M.235,0H1.7a.235.235,0,0,1,.235.235v0A.235.235,0,0,1,1.7.469H.235A.235.235,0,0,1,0,.235v0A.235.235,0,0,1,.235,0Z" transform="translate(1.933 1.093) rotate(180)" fill="#07499d"/>
            <path id="사각형_207" data-name="사각형 207" d="M.235,0H1.528a.235.235,0,0,1,.235.235v0a.235.235,0,0,1-.235.235H.235A.235.235,0,0,1,0,.235v0A.235.235,0,0,1,.235,0Z" transform="translate(1.848 0.469) rotate(180)" fill="#07499d"/>
          </g>
          <g id="그룹_387" data-name="그룹 387" transform="translate(0.485 0.242)">
            <rect id="사각형_222" data-name="사각형 222" width="1.009" height="7.14" fill="#07499d"/>
          </g>
        </g>
        <g id="그룹_388" data-name="그룹 388" transform="translate(6.744 6.332)">
          <g id="그룹_384" data-name="그룹 384" transform="translate(0)">
            <g id="그룹_381" data-name="그룹 381" transform="translate(0)">
              <g id="그룹_380" data-name="그룹 380" transform="translate(0.29 0.349)">
                <rect id="사각형_223" data-name="사각형 223" width="1.353" height="0.635" fill="#07499d"/>
              </g>
              <path id="사각형_224" data-name="사각형 224" d="M.235,0H1.7a.235.235,0,0,1,.235.235v0A.235.235,0,0,1,1.7.469H.235A.235.235,0,0,1,0,.235v0A.235.235,0,0,1,.235,0Z" fill="#07499d"/>
              <path id="사각형_225" data-name="사각형 225" d="M.235,0H1.528a.235.235,0,0,1,.235.235v0a.235.235,0,0,1-.235.235H.235A.235.235,0,0,1,0,.235v0A.235.235,0,0,1,.235,0Z" transform="translate(0.085 0.624)" fill="#07499d"/>
            </g>
            <g id="그룹_383" data-name="그룹 383" transform="translate(0 6.53)">
              <g id="그룹_382" data-name="그룹 382" transform="translate(0.29 0.109)">
                <rect id="사각형_226" data-name="사각형 226" width="1.353" height="0.635" transform="translate(1.353 0.635) rotate(180)" fill="#07499d"/>
              </g>
              <path id="사각형_227" data-name="사각형 227" d="M.235,0H1.7a.235.235,0,0,1,.235.235v0A.235.235,0,0,1,1.7.469H.235A.235.235,0,0,1,0,.235v0A.235.235,0,0,1,.235,0Z" transform="translate(1.933 1.093) rotate(180)" fill="#07499d"/>
              <path id="사각형_228" data-name="사각형 228" d="M.235,0H1.528a.235.235,0,0,1,.235.235v0a.235.235,0,0,1-.235.235H.235A.235.235,0,0,1,0,.235v0A.235.235,0,0,1,.235,0Z" transform="translate(1.848 0.469) rotate(180)" fill="#07499d"/>
            </g>
          </g>
          <rect id="사각형_229" data-name="사각형 229" width="1.009" height="7.14" transform="translate(0.462 0.242)" fill="#07499d"/>
        </g>
        <g id="그룹_391" data-name="그룹 391" transform="translate(0.927 6.332)">
          <g id="그룹_364" data-name="그룹 364" transform="translate(0)">
            <g id="그룹_361" data-name="그룹 361">
              <g id="그룹_360" data-name="그룹 360" transform="translate(0.29 0.349)">
                <rect id="사각형_196" data-name="사각형 196" width="1.353" height="0.635" fill="#07499d"/>
              </g>
              <rect id="사각형_197" data-name="사각형 197" width="1.933" height="0.469" rx="0.235" fill="#07499d"/>
              <path id="사각형_198" data-name="사각형 198" d="M.235,0H1.528a.235.235,0,0,1,.235.235v0a.235.235,0,0,1-.235.235H.235A.235.235,0,0,1,0,.235v0A.235.235,0,0,1,.235,0Z" transform="translate(0.085 0.624)" fill="#07499d"/>
            </g>
            <g id="그룹_363" data-name="그룹 363" transform="translate(0 6.53)">
              <g id="그룹_362" data-name="그룹 362" transform="translate(0.29 0.109)">
                <rect id="사각형_199" data-name="사각형 199" width="1.353" height="0.635" transform="translate(1.353 0.635) rotate(180)" fill="#07499d"/>
              </g>
              <rect id="사각형_200" data-name="사각형 200" width="1.933" height="0.469" rx="0.235" transform="translate(1.933 1.093) rotate(180)" fill="#07499d"/>
              <path id="사각형_201" data-name="사각형 201" d="M.235,0H1.528a.235.235,0,0,1,.235.235v0a.235.235,0,0,1-.235.235H.235A.235.235,0,0,1,0,.235v0A.235.235,0,0,1,.235,0Z" transform="translate(1.848 0.469) rotate(180)" fill="#07499d"/>
            </g>
          </g>
          <rect id="사각형_230" data-name="사각형 230" width="1.009" height="7.14" transform="translate(0.462 0.242)" fill="#07499d"/>
        </g>
      </g>
      <circle id="타원_26" data-name="타원 26" cx="0.722" cy="0.722" r="0.722" transform="translate(6.994 2.639)" fill="#fff"/>
    </g>
  </g>
</svg>
