<svg xmlns="http://www.w3.org/2000/svg" width="9.6" height="9.806" viewBox="0 0 9.6 9.806">
  <g id="그룹_648" data-name="그룹 648" transform="translate(-26 -300)">
    <circle id="타원_42" data-name="타원 42" cx="4.8" cy="4.8" r="4.8" transform="translate(26 300.206)" fill="#ff8d00"/>
    <circle id="타원_43" data-name="타원 43" cx="4.8" cy="4.8" r="4.8" transform="translate(26 300)" fill="#fffa64"/>
    <path id="패스_1812" data-name="패스 1812" d="M506.3,94.514a4.61,4.61,0,0,1-5.694,4.479,4.608,4.608,0,0,1,1.086-9.087c.063,0,.125,0,.187,0a4.613,4.613,0,0,1,4.27,3.43A4.632,4.632,0,0,1,506.3,94.514Z" transform="translate(-470.89 210.286)" fill="#ffe500"/>
    <path id="패스_1813" data-name="패스 1813" d="M540.592,127.96a4.662,4.662,0,0,1-.087.9L536.78,132.5a4.637,4.637,0,0,1-1.882-.061c1.631-1.656,4.291-4.362,5.543-5.652A4.632,4.632,0,0,1,540.592,127.96Z" transform="translate(-505.184 176.84)" fill="#fff85e"/>
    <path id="패스_1814" data-name="패스 1814" d="M504.855,91.2l-6.747,6.246a4.611,4.611,0,0,1-.943-3.767l4.713-3.735A4.585,4.585,0,0,1,504.855,91.2Z" transform="translate(-470.89 210.247)" fill="#fff85e"/>
    <path id="패스_1815" data-name="패스 1815" d="M514.53,105.109a3.668,3.668,0,1,1-.877-2.378A3.666,3.666,0,0,1,514.53,105.109Z" transform="translate(-480.064 199.823)" fill="#ffffb9"/>
    <path id="패스_1816" data-name="패스 1816" d="M515.97,106.714a3.5,3.5,0,1,1-.838-2.271A3.5,3.5,0,0,1,515.97,106.714Z" transform="translate(-481.669 198.218)" fill="#ffb400"/>
    <path id="패스_1817" data-name="패스 1817" d="M512.467,100.635a3.5,3.5,0,0,1,3.5,3.369c0-.044,0-.088,0-.132a3.5,3.5,0,1,0-7,0c0,.044,0,.088,0,.132A3.5,3.5,0,0,1,512.467,100.635Z" transform="translate(-481.667 200.795)" fill="#ff8d00"/>
    <path id="패스_1818" data-name="패스 1818" d="M515.133,104.443,510,109.2a3.5,3.5,0,0,1-.776-3.795l2.708-2.146a3.5,3.5,0,0,1,3.2,1.189Z" transform="translate(-481.669 198.218)" fill="#ffab00"/>
  </g>
</svg>
